<svg id="Layer_1" data-name="Layer 1" xmlns="http://www.w3.org/2000/svg" viewBox="0 0 18.61 18.52"><defs><style>.cls-1{fill:#1d42cc;}</style></defs><title>sym7</title><path class="cls-1" d="M16.16,0,14.4,1.77A10.25,10.25,0,0,0,12.27.65a8.86,8.86,0,0,0-3-.48A8.72,8.72,0,0,0,2.91,2.84,8.73,8.73,0,0,0,.23,9.21a8.94,8.94,0,0,0,.47,3,10.27,10.27,0,0,0,1.13,2.16L0,16.12l2.46,2.4,1.79-1.76A10.51,10.51,0,0,0,6.39,17.9a8.62,8.62,0,0,0,2.93.47,8.74,8.74,0,0,0,6.72-3,8.71,8.71,0,0,0,2.38-6,9.35,9.35,0,0,0-.48-3.08,9.54,9.54,0,0,0-1.11-2.1l1.78-1.8ZM3.61,9.26a5.42,5.42,0,0,1,1.68-4,5.35,5.35,0,0,1,4-1.69,5.16,5.16,0,0,1,1.66.27,7.1,7.1,0,0,1,1,.44L4.29,11.91a5,5,0,0,1-.68-2.65ZM9.33,15a5.79,5.79,0,0,1-2.61-.65l7.63-7.63a5.68,5.68,0,0,1,.39.86A5.5,5.5,0,0,1,15,9.34a5.31,5.31,0,0,1-1.68,3.95A5.42,5.42,0,0,1,9.33,15Z"/></svg>