<svg width="13" height="14" viewBox="0 0 13 14" fill="none" xmlns="http://www.w3.org/2000/svg">
<path d="M7.92896 6.84204L12.4712 2.30279C12.6714 2.10313 12.784 1.83215 12.7843 1.54944C12.7847 1.26674 12.6727 0.995486 12.473 0.795346C12.2734 0.595206 12.0024 0.482577 11.7197 0.482237C11.437 0.481898 11.1657 0.593875 10.9656 0.793535L6.42333 5.3358L1.88287 0.793535C1.78377 0.694435 1.66612 0.615826 1.53664 0.562193C1.40717 0.508561 1.26839 0.480957 1.12824 0.480957C0.988095 0.480957 0.849319 0.508561 0.71984 0.562193C0.59036 0.615826 0.472712 0.694435 0.373613 0.793535C0.274514 0.892634 0.195904 1.01028 0.142272 1.13976C0.0886394 1.26924 0.0610352 1.40802 0.0610352 1.54816C0.0610352 1.68831 0.0886394 1.82709 0.142272 1.95657C0.195904 2.08605 0.274514 2.20369 0.373613 2.30279L4.91588 6.84506L0.373613 11.3843C0.274751 11.4834 0.196377 11.601 0.142964 11.7304C0.0895518 11.8598 0.0621474 11.9984 0.0623156 12.1384C0.0624838 12.2784 0.0902215 12.417 0.143945 12.5462C0.197668 12.6755 0.276325 12.7929 0.375424 12.8918C0.474524 12.9906 0.592125 13.069 0.721513 13.1224C0.850902 13.1758 0.989543 13.2032 1.12952 13.2031C1.2695 13.2029 1.40808 13.1751 1.53734 13.1214C1.6666 13.0677 1.78401 12.989 1.88287 12.8899L6.42514 8.34768L10.9674 12.8899C11.0657 12.9911 11.1831 13.0717 11.3129 13.1271C11.4426 13.1825 11.582 13.2116 11.7231 13.2126C11.8642 13.2136 12.004 13.1865 12.1345 13.133C12.265 13.0795 12.3836 13.0006 12.4834 12.9009C12.5831 12.8011 12.662 12.6825 12.7155 12.552C12.769 12.4215 12.7961 12.2817 12.7951 12.1406C12.794 11.9995 12.765 11.8601 12.7096 11.7304C12.6542 11.6006 12.5736 11.4832 12.4724 11.3849L7.92896 6.84204Z" fill="white"/>
</svg>
