<svg id="Layer_1" data-name="Layer 1" xmlns="http://www.w3.org/2000/svg" viewBox="0 0 566.93 566.93"><defs><style>.cls-1{font-size:44.67px;}.cls-1,.cls-10,.cls-11,.cls-12,.cls-13,.cls-14,.cls-15,.cls-2,.cls-3,.cls-4,.cls-5,.cls-6,.cls-7,.cls-8,.cls-9{fill:#b93636;font-family:MonumentExtended-Regular, Monument Extended;}.cls-2{font-size:40.28px;}.cls-3{font-size:36.37px;}.cls-4{font-size:29.67px;}.cls-5{font-size:24.17px;}.cls-6{font-size:19.62px;}.cls-7{font-size:16.03px;}.cls-8{font-size:13.08px;}.cls-9{font-size:10.61px;}.cls-10{font-size:8.61px;}.cls-11{font-size:7.02px;}.cls-12{font-size:4.71px;}.cls-13{font-size:3.83px;}.cls-14{font-size:3.11px;}.cls-15{font-size:2.55px;}</style></defs><title>Artboard 1</title><text class="cls-1" transform="matrix(-0.08, 1, -1, -0.08, 541.74, 276.47)">c</text><text class="cls-1" transform="translate(539.34 312.92) rotate(103.32)">y</text><text class="cls-1" transform="translate(530.52 351.58) rotate(112.04)">c</text><text class="cls-1" transform="translate(514.63 389.04) rotate(118.05)">l</text><text class="cls-1" transform="matrix(-0.56, 0.83, -0.83, -0.56, 509.85, 399.82)">e</text><text class="cls-1" transform="translate(487.77 432.91) rotate(133.11)">s</text><text class="cls-1" transform="translate(458.46 463.22) rotate(139.81)"> </text><text class="cls-1" transform="matrix(-0.83, 0.55, -0.55, -0.83, 445.94, 474.79)">c</text><text class="cls-1" transform="translate(415.79 495.46) rotate(155.11)">y</text><text class="cls-1" transform="translate(379.99 512.42) rotate(163.83)">c</text><text class="cls-1" transform="matrix(-0.98, 0.18, -0.18, -0.98, 340.73, 523.1)">l</text><text class="cls-1" transform="matrix(-1, 0.07, -0.07, -1, 329.29, 526.02)">e</text><text class="cls-1" transform="matrix(-1, -0.09, 0.09, -1, 289.65, 529.19)">s</text><text class="cls-1" transform="matrix(-0.98, -0.21, 0.21, -0.98, 247.74, 524.75)"> </text><text class="cls-1" transform="matrix(-0.94, -0.33, 0.33, -0.94, 230.99, 521.96)">c</text><text class="cls-1" transform="translate(196.34 510.52) rotate(-151.65)">y</text><text class="cls-1" transform="translate(161.34 492.02) rotate(-142.56)">c</text><text class="cls-1" transform="translate(129.49 466.75) rotate(-136.31)">l</text><text class="cls-1" transform="translate(120.38 459.28) rotate(-130.02)">e</text><text class="cls-1" transform="matrix(-0.51, -0.86, 0.86, -0.51, 94.63, 429.03)">s</text><text class="cls-1" transform="translate(73.88 392.39) rotate(-113.4)"> </text><text class="cls-1" transform="translate(66.4 377.13) rotate(-106.36)">c</text><text class="cls-1" transform="matrix(-0.13, -0.99, 0.99, -0.13, 55.56, 342.29)">y</text><text class="cls-1" transform="matrix(0.03, -1, 1, 0.03, 50.24, 303.04)">c</text><text class="cls-1" transform="matrix(0.15, -0.99, 0.99, 0.15, 52.3, 262.48)">l</text><text class="cls-1" transform="matrix(0.26, -0.97, 0.97, 0.26, 53.08, 250.75)">e</text><text class="cls-1" transform="matrix(0.43, -0.9, 0.9, 0.43, 63.16, 212.4)">s</text><text class="cls-1" transform="translate(81.78 174.67) rotate(-57.31)"> </text><text class="cls-1" transform="translate(90.22 159.96) rotate(-49.99)">c</text><text class="cls-1" transform="matrix(0.76, -0.65, 0.65, 0.76, 113.17, 131.65)">y</text><text class="cls-1" transform="matrix(0.86, -0.51, 0.51, 0.86, 143.02, 105.7)">c</text><text class="cls-1" transform="translate(178.21 85.46) rotate(-24.33)">l</text><text class="cls-1" transform="translate(188.49 79.77) rotate(-17.63)">e</text><text class="cls-1" transform="translate(226.21 67.48) rotate(-7.54)">s</text><text class="cls-1" transform="translate(268.09 62.83) rotate(-0.93)"> </text><text class="cls-1" transform="translate(284.93 61.77) rotate(7.47)">c</text><text class="cls-1" transform="matrix(0.95, 0.3, -0.3, 0.95, 321.1, 65.85)">y</text><text class="cls-1" transform="matrix(0.89, 0.46, -0.46, 0.89, 358.86, 77.4)">c</text><text class="cls-1" transform="matrix(0.82, 0.57, -0.57, 0.82, 394.42, 96.93)">l</text><text class="cls-1" transform="matrix(0.75, 0.66, -0.66, 0.75, 404.58, 102.75)">e</text><text class="cls-1" transform="matrix(0.61, 0.79, -0.79, 0.61, 434.41, 128.81)">s</text><text class="cls-1" transform="matrix(0.5, 0.86, -0.86, 0.5, 459.63, 162.43)"> </text><text class="cls-2" transform="translate(468.74 176.75) rotate(67.08)">c</text><text class="cls-2" transform="translate(481.99 206.71) rotate(76.21)">y</text><text class="cls-2" transform="matrix(0.08, 1, -1, 0.08, 490.78, 241.21)">c</text><text class="cls-3" transform="translate(493.15 278.42) rotate(91.56)">l</text><text class="cls-3" transform="translate(493.59 287.9) rotate(97.5)">e</text><text class="cls-3" transform="translate(489.61 319.82) rotate(106.57)">s</text><text class="cls-3" transform="translate(479.33 352.41) rotate(113.31)"> </text><text class="cls-3" transform="translate(474.48 365.24) rotate(119.94)">c</text><text class="cls-3" transform="translate(460.13 391.08) rotate(128.53)">y</text><text class="cls-3" transform="translate(440.38 416.32) rotate(137.07)">c</text><text class="cls-3" transform="translate(415.83 438.43) rotate(142.98)">l</text><text class="cls-3" transform="translate(408.73 444.66) rotate(148.94)">e</text><text class="cls-3" transform="translate(381.29 461.43) rotate(158)">s</text><text class="cls-3" transform="translate(349.39 473.73) rotate(164.74)"> </text><text class="cls-3" transform="translate(336.35 477.93) rotate(171.38)">c</text><text class="cls-3" transform="matrix(-1, 0.02, -0.02, -1, 307.3, 482.54)">y</text><text class="cls-3" transform="translate(275.17 483.16) rotate(-171.13)">c</text><text class="cls-3" transform="translate(242.7 477.52) rotate(-164.86)">l</text><text class="cls-3" transform="translate(233.44 475.78) rotate(-158.53)">e</text><text class="cls-3" transform="translate(203.46 464.24) rotate(-149.02)">s</text><text class="cls-3" transform="translate(174.5 446.18) rotate(-142)"> </text><text class="cls-3" transform="translate(163.32 438.27) rotate(-135.1)">c</text><text class="cls-3" transform="matrix(-0.59, -0.81, 0.81, -0.59, 142.09, 417.8)">y</text><text class="cls-3" transform="translate(122.98 392.11) rotate(-117.08)">c</text><text class="cls-3" transform="matrix(-0.36, -0.93, 0.93, -0.36, 108.47, 362.5)">l</text><text class="cls-3" transform="translate(104.45 353.99) rotate(-104.48)">e</text><text class="cls-3" transform="translate(96.19 322.95) rotate(-94.98)">s</text><text class="cls-3" transform="translate(93.79 288.9) rotate(-87.95)"> </text><text class="cls-3" transform="matrix(0.16, -0.99, 0.99, 0.16, 93.59, 275.26)">c</text><text class="cls-3" transform="matrix(0.32, -0.95, 0.95, 0.32, 97.83, 246.13)">y</text><text class="cls-3" transform="translate(107.87 215.78) rotate(-61.6)">c</text><text class="cls-3" transform="matrix(0.57, -0.82, 0.82, 0.57, 124.05, 187.1)">l</text><text class="cls-3" transform="translate(128.8 178.96) rotate(-48.47)">e</text><text class="cls-3" transform="matrix(0.78, -0.62, 0.62, 0.78, 149.87, 154.8)">s</text><text class="cls-3" transform="translate(176.88 134.03) rotate(-31.21)"> </text><text class="cls-3" transform="translate(188.18 126.37) rotate(-23.89)">c</text><text class="cls-3" transform="translate(214.87 113.97) rotate(-14.33)">y</text><text class="cls-3" transform="translate(245.77 105.76) rotate(-4.82)">c</text><text class="cls-3" transform="translate(278.63 103.56) rotate(1.72)">l</text><text class="cls-3" transform="translate(287.98 103.03) rotate(8.61)">e</text><text class="cls-3" transform="translate(319.66 107.56) rotate(19.14)">s</text><text class="cls-3" transform="translate(351.59 119.3) rotate(26.94)"> </text><text class="cls-3" transform="translate(364.03 124.81) rotate(34.6)">c</text><text class="cls-3" transform="matrix(0.71, 0.7, -0.7, 0.71, 388.55, 141.06)">y</text><text class="cls-3" transform="translate(411.54 163.22) rotate(54.45)">c</text><text class="cls-3" transform="translate(430.14 190.3) rotate(61.32)">l</text><text class="cls-3" transform="translate(435.35 198.11) rotate(68.29)">e</text><text class="cls-3" transform="matrix(0.19, 0.98, -0.98, 0.19, 447.43, 227.72)">s</text><text class="cls-4" transform="translate(453.37 261.3) rotate(86.16)"> </text><text class="cls-4" transform="matrix(-0.04, 1, -1, -0.04, 454.61, 272.29)">c</text><text class="cls-4" transform="translate(453.99 296.18) rotate(100.95)">y</text><text class="cls-4" transform="translate(449.3 321.7) rotate(109.55)">c</text><text class="cls-4" transform="translate(439.93 346.81) rotate(115.49)">l</text><text class="cls-4" transform="translate(437.19 353.87) rotate(121.43)">e</text><text class="cls-4" transform="matrix(-0.65, 0.76, -0.76, -0.65, 423.77, 376.19)">s</text><text class="cls-4" transform="matrix(-0.73, 0.68, -0.68, -0.73, 405.5, 397.01)"> </text><text class="cls-4" transform="matrix(-0.8, 0.59, -0.59, -0.8, 397.79, 404.91)">c</text><text class="cls-4" transform="translate(378.8 419.45) rotate(152.05)">y</text><text class="cls-4" transform="matrix(-0.94, 0.33, -0.33, -0.94, 355.98, 431.83)">c</text><text class="cls-4" transform="matrix(-0.97, 0.23, -0.23, -0.97, 330.59, 440.29)">l</text><text class="cls-4" transform="translate(323.36 442.61) rotate(172.54)">e</text><text class="cls-4" transform="translate(297.59 446.18) rotate(-178.53)">s</text><text class="cls-4" transform="matrix(-0.99, -0.15, 0.15, -0.99, 269.91, 445.02)"> </text><text class="cls-4" transform="translate(258.98 443.95) rotate(-164.66)">c</text><text class="cls-4" transform="matrix(-0.91, -0.41, 0.41, -0.91, 235.86, 438.04)">y</text><text class="cls-4" transform="matrix(-0.84, -0.55, 0.55, -0.84, 212.18, 427.59)">c</text><text class="cls-4" transform="matrix(-0.77, -0.64, 0.64, -0.77, 190.08, 412.49)">l</text><text class="cls-4" transform="matrix(-0.7, -0.72, 0.72, -0.7, 183.91, 408.18)">e</text><text class="cls-4" transform="matrix(-0.57, -0.82, 0.82, -0.57, 165.62, 389.71)">s</text><text class="cls-4" transform="translate(150.15 366.73) rotate(-117.9)"> </text><text class="cls-4" transform="matrix(-0.36, -0.93, 0.93, -0.36, 144.54, 357.3)">c</text><text class="cls-4" transform="matrix(-0.21, -0.98, 0.98, -0.21, 135.61, 335.19)">y</text><text class="cls-4" transform="matrix(-0.05, -1, 1, -0.05, 130, 309.88)">c</text><text class="cls-4" transform="translate(129.05 283.16) rotate(-86.72)">l</text><text class="cls-4" transform="translate(128.84 275.66) rotate(-80.2)">e</text><text class="cls-4" transform="translate(133.04 250.07) rotate(-70.24)">s</text><text class="cls-4" transform="translate(142.82 224.25) rotate(-62.88)"> </text><text class="cls-4" transform="translate(147.3 214.25) rotate(-55.63)">c</text><text class="cls-4" transform="translate(160.38 194.34) rotate(-46.25)">y</text><text class="cls-4" transform="translate(178.08 175.47) rotate(-36.88)">c</text><text class="cls-4" transform="matrix(0.86, -0.51, 0.51, 0.86, 199.71, 159.83)">l</text><text class="cls-4" transform="translate(205.85 155.48) rotate(-23.81)">e</text><text class="cls-4" transform="matrix(0.97, -0.24, 0.24, 0.97, 229.44, 144.82)">s</text><text class="cls-4" transform="translate(256.39 138.66) rotate(-6.51)"> </text><text class="cls-4" transform="translate(267.15 136.8) rotate(0.93)">c</text><text class="cls-4" transform="translate(290.95 136.67) rotate(10.52)">y</text><text class="cls-4" transform="translate(316.38 141.09) rotate(20.49)">c</text><text class="cls-4" transform="translate(341.15 150.87) rotate(27.34)">l</text><text class="cls-4" transform="matrix(0.83, 0.56, -0.56, 0.83, 348.09, 153.71)">e</text><text class="cls-4" transform="translate(369.61 168.06) rotate(44.55)">s</text><text class="cls-4" transform="matrix(0.61, 0.79, -0.79, 0.61, 388.93, 187.77)"> </text><text class="cls-4" transform="matrix(0.5, 0.86, -0.86, 0.5, 396.08, 196.01)">c</text><text class="cls-4" transform="matrix(0.35, 0.94, -0.94, 0.35, 408.43, 216.29)">y</text><text class="cls-4" transform="matrix(0.18, 0.98, -0.98, 0.18, 417.64, 240.39)">c</text><text class="cls-5" transform="matrix(0.06, 1, -1, 0.06, 421.95, 267.24)">l</text><text class="cls-5" transform="translate(422.79 273.28) rotate(92.02)">e</text><text class="cls-5" transform="translate(422.22 294.25) rotate(100.86)">s</text><text class="cls-5" transform="translate(417.66 316.21) rotate(107.49)"> </text><text class="cls-5" transform="translate(415.42 324.73) rotate(114.02)">c</text><text class="cls-5" transform="translate(407.87 342.48) rotate(122.51)">y</text><text class="cls-5" transform="translate(396.78 360.26) rotate(130.94)">c</text><text class="cls-5" transform="matrix(-0.73, 0.69, -0.69, -0.73, 382.33, 376.4)">l</text><text class="cls-5" transform="translate(378.25 380.88) rotate(142.6)">e</text><text class="cls-5" transform="translate(361.7 393.76) rotate(151.46)">s</text><text class="cls-5" transform="translate(341.82 404.18) rotate(158.07)"> </text><text class="cls-5" transform="translate(333.82 407.86) rotate(164.61)">c</text><text class="cls-5" transform="translate(315.32 413.29) rotate(173.12)">y</text><text class="cls-5" transform="translate(294.57 416.01) rotate(-178.46)">c</text><text class="cls-5" transform="translate(272.93 415.08) rotate(-172.36)">l</text><text class="cls-5" transform="translate(266.93 414.78) rotate(-166.16)">e</text><text class="cls-5" transform="translate(246.57 409.96) rotate(-156.79)">s</text><text class="cls-5" transform="matrix(-0.86, -0.5, 0.5, -0.86, 226.14, 400.8)"> </text><text class="cls-5" transform="matrix(-0.8, -0.6, 0.6, -0.8, 218.32, 396.77)">c</text><text class="cls-5" transform="translate(202.76 385.5) rotate(-134.21)">y</text><text class="cls-5" transform="translate(188.03 370.68) rotate(-125.38)">c</text><text class="cls-5" transform="translate(175.79 352.83) rotate(-119.25)">l</text><text class="cls-5" transform="translate(172.43 347.84) rotate(-113.05)">e</text><text class="cls-5" transform="translate(164.06 328.66) rotate(-103.67)">s</text><text class="cls-5" transform="matrix(-0.12, -0.99, 0.99, -0.12, 159.13, 306.83)"> </text><text class="cls-5" transform="translate(157.48 298.09) rotate(-89.07)">c</text><text class="cls-5" transform="translate(157.29 278.98) rotate(-80.73)">y</text><text class="cls-5" transform="translate(160.41 258.37) rotate(-71.35)">c</text><text class="cls-5" transform="matrix(0.42, -0.91, 0.91, 0.42, 167.67, 238.03)">l</text><text class="cls-5" transform="matrix(0.52, -0.85, 0.85, 0.52, 169.72, 232.42)">e</text><text class="cls-5" transform="translate(180.5 214.54) rotate(-48.64)">s</text><text class="cls-5" transform="matrix(0.75, -0.66, 0.66, 0.75, 195.55, 198.01)"> </text><text class="cls-5" transform="translate(201.79 191.88) rotate(-34.3)">c</text><text class="cls-5" transform="translate(217.41 180.77) rotate(-24.96)">y</text><text class="cls-5" transform="translate(236.19 171.76) rotate(-15.59)">c</text><text class="cls-5" transform="translate(257.1 166.32) rotate(-9.11)">l</text><text class="cls-5" transform="translate(262.89 164.86) rotate(-2.66)">e</text><text class="cls-5" transform="matrix(0.99, 0.13, -0.13, 0.99, 283.72, 163.66)">s</text><text class="cls-5" transform="translate(305.77 166.9) rotate(15)"> </text><text class="cls-5" transform="translate(314.29 168.67) rotate(22.56)">c</text><text class="cls-5" transform="translate(332.09 175.63) rotate(32.37)">y</text><text class="cls-5" transform="translate(349.79 186.56) rotate(42.12)">c</text><text class="cls-5" transform="translate(365.51 201.29) rotate(48.82)">l</text><text class="cls-5" transform="translate(369.83 205.39) rotate(55.6)">e</text><text class="cls-5" transform="matrix(0.41, 0.91, -0.91, 0.41, 381.77, 222.46)">s</text><text class="cls-5" transform="translate(390.53 242.96) rotate(73.54)"> </text><text class="cls-5" transform="translate(393.47 251.15) rotate(81.1)">c</text><text class="cls-6" transform="matrix(-0.02, 1, -1, -0.02, 396.8, 272.56)">y</text><text class="cls-6" transform="translate(396.7 289.34) rotate(99.24)">c</text><text class="cls-6" transform="matrix(-0.26, 0.97, -0.97, -0.26, 393.64, 306.51)">l</text><text class="cls-6" transform="matrix(-0.36, 0.93, -0.93, -0.36, 392.78, 311.21)">e</text><text class="cls-6" transform="translate(386.93 327) rotate(119.63)">s</text><text class="cls-6" transform="matrix(-0.59, 0.81, -0.81, -0.59, 377.77, 342.56)"> </text><text class="cls-6" transform="matrix(-0.68, 0.74, -0.74, -0.68, 373.91, 348.44)">c</text><text class="cls-6" transform="translate(363.68 360.03) rotate(140.77)">y</text><text class="cls-6" transform="translate(350.78 370.79) rotate(149.07)">c</text><text class="cls-6" transform="matrix(-0.91, 0.43, -0.43, -0.91, 335.65, 379.54)">l</text><text class="cls-6" transform="translate(331.53 381.91) rotate(160.66)">e</text><text class="cls-6" transform="matrix(-0.98, 0.18, -0.18, -0.98, 315.68, 387.63)">s</text><text class="cls-6" transform="matrix(-1, 0.07, -0.07, -1, 297.88, 390.67)"> </text><text class="cls-6" transform="translate(290.92 391.52) rotate(-177.64)">c</text><text class="cls-6" transform="matrix(-0.98, -0.19, 0.19, -0.98, 275.54, 391.18)">y</text><text class="cls-6" transform="translate(259.05 388.15) rotate(-160.12)">c</text><text class="cls-6" transform="translate(242.76 381.97) rotate(-154.06)">l</text><text class="cls-6" transform="translate(238.34 380.27) rotate(-147.97)">e</text><text class="cls-6" transform="translate(224.01 371.49) rotate(-138.82)">s</text><text class="cls-6" transform="translate(210.65 359.44) rotate(-132.08)"> </text><text class="cls-6" transform="matrix(-0.58, -0.82, 0.82, -0.58, 205.68, 354.49)">c</text><text class="cls-6" transform="matrix(-0.45, -0.89, 0.89, -0.45, 196.54, 342.12)">y</text><text class="cls-6" transform="matrix(-0.31, -0.95, 0.95, -0.31, 188.85, 327.24)">c</text><text class="cls-6" transform="translate(183.77 310.57) rotate(-101.78)">l</text><text class="cls-6" transform="translate(182.41 306.02) rotate(-95.69)">e</text><text class="cls-6" transform="translate(180.57 289.34) rotate(-86.46)">s</text><text class="cls-6" transform="translate(181.96 271.43) rotate(-79.34)"> </text><text class="cls-6" transform="translate(182.86 264.55) rotate(-72.26)">c</text><text class="cls-6" transform="translate(187.24 249.83) rotate(-63.03)">y</text><text class="cls-6" transform="translate(194.63 234.86) rotate(-53.87)">c</text><text class="cls-6" transform="matrix(0.67, -0.74, 0.74, 0.67, 205.12, 220.97)">l</text><text class="cls-6" transform="matrix(0.75, -0.66, 0.66, 0.75, 207.97, 217.23)">e</text><text class="cls-6" transform="translate(220.43 206.08) rotate(-31.65)">s</text><text class="cls-6" transform="matrix(0.91, -0.41, 0.41, 0.91, 235.88, 196.89)"> </text><text class="cls-6" transform="matrix(0.95, -0.3, 0.3, 0.95, 242.02, 193.66)">c</text><text class="cls-6" transform="matrix(0.99, -0.14, 0.14, 0.99, 256.56, 188.77)">y</text><text class="cls-6" transform="translate(273.09 186.19) rotate(0.94)">c</text><text class="cls-6" transform="translate(290.43 186.77) rotate(7.53)">l</text><text class="cls-6" transform="translate(295.07 186.93) rotate(14.23)">e</text><text class="cls-6" transform="translate(311.3 190.84) rotate(24.39)">s</text><text class="cls-6" transform="matrix(0.85, 0.53, -0.53, 0.85, 327.49, 198.51)"> </text><text class="cls-6" transform="matrix(0.77, 0.63, -0.63, 0.77, 333.56, 201.81)">c</text><text class="cls-6" transform="translate(345.62 211.24) rotate(48.82)">y</text><text class="cls-6" transform="matrix(0.52, 0.85, -0.85, 0.52, 356.74, 223.61)">c</text><text class="cls-6" transform="translate(365.59 238.56) rotate(65.06)">l</text><text class="cls-6" transform="translate(367.94 242.56) rotate(71.77)">e</text><text class="cls-6" transform="translate(373.34 258.35) rotate(81.92)">s</text><text class="cls-6" transform="translate(375.55 276.13) rotate(89.07)"> </text><text class="cls-7" transform="matrix(-0.1, 0.99, -0.99, -0.1, 375.91, 283.1)">c</text><text class="cls-7" transform="matrix(-0.25, 0.97, -0.97, -0.25, 374.86, 295.5)">y</text><text class="cls-7" transform="matrix(-0.38, 0.92, -0.92, -0.38, 371.68, 308.66)">c</text><text class="cls-7" transform="translate(366.07 321.64) rotate(118.25)">l</text><text class="cls-7" transform="translate(364.57 325.09) rotate(123.98)">e</text><text class="cls-7" transform="translate(357.1 336.42) rotate(132.59)">s</text><text class="cls-7" transform="matrix(-0.75, 0.66, -0.66, -0.75, 347.08, 347.02)"> </text><text class="cls-7" transform="matrix(-0.82, 0.57, -0.57, -0.82, 343.03, 350.93)">c</text><text class="cls-7" transform="translate(332.96 358.2) rotate(153.51)">y</text><text class="cls-7" transform="translate(320.91 364.38) rotate(161.79)">c</text><text class="cls-7" transform="matrix(-0.98, 0.22, -0.22, -0.98, 307.42, 368.6)">l</text><text class="cls-7" transform="matrix(-0.99, 0.12, -0.12, -0.99, 303.84, 369.72)">e</text><text class="cls-7" transform="translate(290.42 371.45) rotate(-178.14)">s</text><text class="cls-7" transform="translate(275.82 370.76) rotate(-171.43)"> </text><text class="cls-7" transform="translate(270.31 370.24) rotate(-164.77)">c</text><text class="cls-7" transform="translate(258.29 367.23) rotate(-156.07)">y</text><text class="cls-7" transform="matrix(-0.84, -0.54, 0.54, -0.84, 245.9, 361.92)">c</text><text class="cls-7" transform="translate(234.13 354.14) rotate(-141.47)">l</text><text class="cls-7" transform="translate(231.01 352.08) rotate(-135.5)">e</text><text class="cls-7" transform="matrix(-0.59, -0.8, 0.8, -0.59, 221.27, 342.72)">s</text><text class="cls-7" transform="translate(212.77 330.87) rotate(-119.77)"> </text><text class="cls-7" transform="matrix(-0.39, -0.92, 0.92, -0.39, 209.76, 326.23)">c</text><text class="cls-7" transform="matrix(-0.25, -0.97, 0.97, -0.25, 204.67, 314.95)">y</text><text class="cls-7" transform="translate(201.14 301.92) rotate(-95.77)">c</text><text class="cls-7" transform="matrix(0.02, -1, 1, 0.02, 199.9, 287.82)">l</text><text class="cls-7" transform="matrix(0.11, -0.99, 0.99, 0.11, 199.6, 284.17)">e</text><text class="cls-7" transform="translate(200.93 270.78) rotate(-74.1)">s</text><text class="cls-7" transform="translate(205.12 256.87) rotate(-67.01)"> </text><text class="cls-7" transform="translate(206.97 251.69) rotate(-60.04)">c</text><text class="cls-7" transform="matrix(0.63, -0.78, 0.78, 0.63, 212.9, 240.87)">y</text><text class="cls-7" transform="matrix(0.74, -0.67, 0.67, 0.74, 221.21, 230.31)">c</text><text class="cls-7" transform="translate(231.82 221.06) rotate(-35.78)">l</text><text class="cls-7" transform="translate(234.61 218.61) rotate(-29.49)">e</text><text class="cls-7" transform="translate(246.23 211.85) rotate(-19.96)">s</text><text class="cls-7" transform="translate(259.95 207.11) rotate(-12.86)"> </text><text class="cls-7" transform="translate(265.26 205.57) rotate(-5.89)">c</text><text class="cls-7" transform="matrix(1, 0.06, -0.06, 1, 277.48, 204.02)">y</text><text class="cls-7" transform="translate(290.85 204.57) rotate(12.66)">c</text><text class="cls-7" transform="translate(304.49 207.88) rotate(19.27)">l</text><text class="cls-7" transform="translate(308.05 208.73) rotate(25.9)">e</text><text class="cls-7" transform="matrix(0.81, 0.59, -0.59, 0.81, 320.17, 214.42)">s</text><text class="cls-7" transform="translate(331.77 223.08) rotate(43.19)"> </text><text class="cls-7" transform="matrix(0.64, 0.77, -0.77, 0.64, 336, 226.59)">c</text><text class="cls-7" transform="matrix(0.5, 0.87, -0.87, 0.5, 344.04, 235.87)">y</text><text class="cls-7" transform="translate(350.92 247.35) rotate(69.43)">c</text><text class="cls-7" transform="matrix(0.24, 0.97, -0.97, 0.24, 355.63, 260.56)">l</text><text class="cls-7" transform="translate(356.87 264.01) rotate(82.64)">e</text><text class="cls-7" transform="translate(358.76 277.24) rotate(92.58)">s</text><text class="cls-7" transform="translate(357.88 291.67) rotate(100.31)"> </text><text class="cls-8" transform="matrix(-0.29, 0.96, -0.96, -0.29, 357.11, 297.14)">c</text><text class="cls-8" transform="translate(354.39 306.74) rotate(115.16)">y</text><text class="cls-8" transform="translate(349.91 316.62) rotate(123.27)">c</text><text class="cls-8" transform="translate(343.51 326.07) rotate(128.85)">l</text><text class="cls-8" transform="translate(341.86 328.53) rotate(134.47)">e</text><text class="cls-8" transform="matrix(-0.8, 0.6, -0.6, -0.8, 334.33, 336.38)">s</text><text class="cls-8" transform="matrix(-0.86, 0.51, -0.51, -0.86, 324.83, 343.36)"> </text><text class="cls-8" transform="matrix(-0.91, 0.42, -0.42, -0.91, 321.17, 345.82)">c</text><text class="cls-8" transform="translate(312.21 350.14) rotate(163.63)">y</text><text class="cls-8" transform="translate(301.82 353.34) rotate(171.79)">c</text><text class="cls-8" transform="translate(290.48 354.81) rotate(177.37)">l</text><text class="cls-8" transform="matrix(-1, -0.05, 0.05, -1, 287.6, 355.21)">e</text><text class="cls-8" transform="translate(276.78 354.77) rotate(-168.05)">s</text><text class="cls-8" transform="translate(265.35 352.19) rotate(-161.42)"> </text><text class="cls-8" transform="matrix(-0.91, -0.43, 0.43, -0.91, 261.12, 351.03)">c</text><text class="cls-8" transform="matrix(-0.83, -0.55, 0.55, -0.83, 252.06, 347.02)">y</text><text class="cls-8" transform="translate(242.97 341.14) rotate(-137.88)">c</text><text class="cls-8" transform="matrix(-0.67, -0.74, 0.74, -0.67, 234.64, 333.39)">l</text><text class="cls-8" transform="matrix(-0.59, -0.81, 0.81, -0.59, 232.49, 331.41)">e</text><text class="cls-8" transform="matrix(-0.46, -0.89, 0.89, -0.46, 226, 322.77)">s</text><text class="cls-8" transform="translate(220.76 312.25) rotate(-110.62)"> </text><text class="cls-8" transform="translate(218.99 308.25) rotate(-104.05)">c</text><text class="cls-8" transform="translate(216.37 298.71) rotate(-95.55)">y</text><text class="cls-8" transform="translate(215.17 287.96) rotate(-87.03)">c</text><text class="cls-8" transform="translate(215.93 276.64) rotate(-80.91)">l</text><text class="cls-8" transform="translate(216.1 273.76) rotate(-74.68)">e</text><text class="cls-8" transform="translate(218.79 263.35) rotate(-65.3)">s</text><text class="cls-8" transform="translate(223.83 252.81) rotate(-58.37)"> </text><text class="cls-8" transform="matrix(0.62, -0.78, 0.78, 0.62, 225.89, 248.96)">c</text><text class="cls-8" transform="matrix(0.73, -0.68, 0.68, 0.73, 231.84, 241.09)">y</text><text class="cls-8" transform="matrix(0.83, -0.56, 0.56, 0.83, 239.66, 233.66)">c</text><text class="cls-8" transform="translate(249.17 227.49) rotate(-27.69)">l</text><text class="cls-8" transform="translate(251.57 225.91) rotate(-21.48)">e</text><text class="cls-8" transform="translate(261.51 221.84) rotate(-12.1)">s</text><text class="cls-8" transform="translate(272.98 219.55) rotate(-5.17)"> </text><text class="cls-8" transform="translate(277.28 218.89) rotate(1.66)">c</text><text class="cls-8" transform="translate(287.1 218.92) rotate(10.94)">y</text><text class="cls-8" transform="translate(297.65 220.79) rotate(20.3)">c</text><text class="cls-8" transform="matrix(0.89, 0.45, -0.45, 0.89, 308.19, 224.87)">l</text><text class="cls-8" transform="translate(310.84 225.87) rotate(33.24)">e</text><text class="cls-8" transform="translate(319.89 231.62) rotate(42.97)">s</text><text class="cls-8" transform="matrix(0.64, 0.77, -0.77, 0.64, 328.29, 239.68)"> </text><text class="cls-8" transform="translate(331.27 242.81) rotate(57.31)">c</text><text class="cls-8" transform="translate(336.77 250.92) rotate(66.65)">y</text><text class="cls-8" transform="translate(341.18 260.69) rotate(76.02)">c</text><text class="cls-8" transform="translate(343.74 271.69) rotate(82.46)">l</text><text class="cls-8" transform="translate(344.41 274.46) rotate(88.92)">e</text><text class="cls-8" transform="matrix(-0.16, 0.99, -0.99, -0.16, 344.79, 285.13)">s</text><text class="cls-9" transform="translate(342.77 296.62) rotate(106.19)"> </text><text class="cls-9" transform="translate(341.99 299.98) rotate(112.3)">c</text><text class="cls-9" transform="translate(339.15 307.36) rotate(120.22)">y</text><text class="cls-9" transform="matrix(-0.62, 0.79, -0.79, -0.62, 334.92, 314.87)">c</text><text class="cls-9" transform="matrix(-0.69, 0.72, -0.72, -0.69, 329.19, 321.98)">l</text><text class="cls-9" transform="matrix(-0.75, 0.66, -0.66, -0.75, 327.78, 323.76)">e</text><text class="cls-9" transform="translate(321.34 329.51) rotate(147.29)">s</text><text class="cls-9" transform="translate(313.35 334.5) rotate(153.44)"> </text><text class="cls-9" transform="translate(310.37 336.21) rotate(159.54)">c</text><text class="cls-9" transform="translate(303.04 339.14) rotate(167.49)">y</text><text class="cls-9" transform="matrix(-1, 0.08, -0.08, -1, 294.66, 341.14)">c</text><text class="cls-9" transform="matrix(-1, -0.02, 0.02, -1, 285.55, 341.75)">l</text><text class="cls-9" transform="matrix(-0.99, -0.12, 0.12, -0.99, 283.29, 341.94)">e</text><text class="cls-9" transform="matrix(-0.96, -0.26, 0.26, -0.96, 274.75, 341.08)">s</text><text class="cls-9" transform="translate(265.74 338.5) rotate(-158.29)"> </text><text class="cls-9" transform="translate(262.5 337.43) rotate(-151.91)">c</text><text class="cls-9" transform="matrix(-0.81, -0.59, 0.59, -0.81, 255.49, 333.9)">y</text><text class="cls-9" transform="translate(248.49 328.9) rotate(-135.41)">c</text><text class="cls-9" transform="matrix(-0.64, -0.77, 0.77, -0.64, 242.09, 322.42)">l</text><text class="cls-9" transform="matrix(-0.56, -0.83, 0.83, -0.56, 240.5, 320.86)">e</text><text class="cls-9" transform="translate(235.6 313.81) rotate(-115.3)">s</text><text class="cls-9" transform="matrix(-0.32, -0.95, 0.95, -0.32, 231.7, 305.28)"> </text><text class="cls-9" transform="translate(230.41 302.13) rotate(-102.44)">c</text><text class="cls-9" transform="matrix(-0.07, -1, 1, -0.07, 228.54, 294.51)">y</text><text class="cls-9" transform="translate(227.77 285.97) rotate(-85.79)">c</text><text class="cls-9" transform="translate(228.56 276.93) rotate(-79.84)">l</text><text class="cls-9" transform="translate(228.72 274.73) rotate(-73.8)">e</text><text class="cls-9" transform="matrix(0.43, -0.9, 0.9, 0.43, 230.96, 266.51)">s</text><text class="cls-9" transform="matrix(0.53, -0.85, 0.85, 0.53, 235.06, 258.14)"> </text><text class="cls-9" transform="translate(236.68 255.15) rotate(-51.28)">c</text><text class="cls-9" transform="matrix(0.73, -0.68, 0.68, 0.73, 241.4, 248.95)">y</text><text class="cls-9" transform="matrix(0.83, -0.56, 0.56, 0.83, 247.6, 243.04)">c</text><text class="cls-9" transform="translate(255.17 238.07) rotate(-28.09)">l</text><text class="cls-9" transform="translate(256.99 236.83) rotate(-22.05)">e</text><text class="cls-9" transform="translate(264.85 233.51) rotate(-12.92)">s</text><text class="cls-9" transform="matrix(0.99, -0.11, 0.11, 0.99, 273.97, 231.55)"> </text><text class="cls-9" transform="translate(277.28 230.96) rotate(0.49)">c</text><text class="cls-9" transform="matrix(0.99, 0.16, -0.16, 0.99, 285.05, 230.81)">y</text><text class="cls-9" transform="translate(293.45 232.05) rotate(18.52)">c</text><text class="cls-9" transform="translate(301.97 235.05) rotate(24.8)">l</text><text class="cls-9" transform="matrix(0.86, 0.52, -0.52, 0.86, 304.03, 235.72)">e</text><text class="cls-9" transform="matrix(0.76, 0.65, -0.65, 0.76, 311.36, 239.99)">s</text><text class="cls-9" transform="matrix(0.67, 0.74, -0.74, 0.67, 318.34, 246.13)"> </text><text class="cls-9" transform="translate(320.76 248.43) rotate(54.5)">c</text><text class="cls-9" transform="translate(325.44 254.63) rotate(63.55)">y</text><text class="cls-9" transform="translate(329.36 262.16) rotate(72.66)">c</text><text class="cls-9" transform="matrix(0.19, 0.98, -0.98, 0.19, 331.92, 270.8)">l</text><text class="cls-9" transform="matrix(0.08, 1, -1, 0.08, 332.58, 272.86)">e</text><text class="cls-9" transform="matrix(-0.09, 1, -1, -0.09, 333.45, 281.28)">s</text><text class="cls-9" transform="translate(332.52 290.51) rotate(102.19)"> </text><text class="cls-10" transform="translate(331.96 293.87) rotate(108.54)">c</text><text class="cls-10" transform="translate(330.12 299.82) rotate(116.25)">y</text><text class="cls-10" transform="translate(327.18 306.02) rotate(123.94)">c</text><text class="cls-10" transform="matrix(-0.63, 0.77, -0.77, -0.63, 323.03, 312.02)">l</text><text class="cls-10" transform="matrix(-0.7, 0.71, -0.71, -0.7, 322.08, 313.46)">e</text><text class="cls-10" transform="matrix(-0.79, 0.61, -0.61, -0.79, 317.35, 318.4)">s</text><text class="cls-10" transform="matrix(-0.85, 0.52, -0.52, -0.85, 311.33, 322.91)"> </text><text class="cls-10" transform="translate(309.15 324.43) rotate(154.45)">c</text><text class="cls-10" transform="translate(303.57 327.26) rotate(162.17)">y</text><text class="cls-10" transform="translate(297.09 329.46) rotate(169.9)">c</text><text class="cls-10" transform="translate(289.87 330.65) rotate(174.97)">l</text><text class="cls-10" transform="translate(288.16 330.95) rotate(-179.66)">e</text><text class="cls-10" transform="translate(281.41 331.01) rotate(-171.13)">s</text><text class="cls-10" transform="translate(274.04 329.78) rotate(-164.85)"> </text><text class="cls-10" transform="translate(271.47 329.26) rotate(-158.64)">c</text><text class="cls-10" transform="translate(265.62 327.14) rotate(-150.58)">y</text><text class="cls-10" transform="matrix(-0.79, -0.61, 0.61, -0.79, 259.65, 323.91)">c</text><text class="cls-10" transform="translate(253.93 319.41) rotate(-137.05)">l</text><text class="cls-10" transform="matrix(-0.66, -0.75, 0.75, -0.66, 252.57, 318.4)">e</text><text class="cls-10" transform="translate(247.99 313.38) rotate(-123.1)">s</text><text class="cls-10" transform="matrix(-0.45, -0.89, 0.89, -0.45, 243.99, 307.08)"> </text><text class="cls-10" transform="translate(242.64 304.8) rotate(-110.64)">c</text><text class="cls-10" transform="translate(240.3 299.05) rotate(-102.57)">y</text><text class="cls-10" transform="translate(238.72 292.45) rotate(-94.61)">c</text><text class="cls-10" transform="matrix(0.02, -1, 1, 0.02, 238.23, 285.18)">l</text><text class="cls-10" transform="translate(238.07 283.52) rotate(-83.24)">e</text><text class="cls-10" transform="translate(238.75 276.83) rotate(-74.39)">s</text><text class="cls-10" transform="translate(240.83 269.7) rotate(-67.83)"> </text><text class="cls-10" transform="translate(241.64 267.23) rotate(-61.36)">c</text><text class="cls-10" transform="matrix(0.6, -0.8, 0.8, 0.6, 244.46, 261.73)">y</text><text class="cls-10" transform="translate(248.42 256.27) rotate(-44.62)">c</text><text class="cls-10" transform="matrix(0.78, -0.63, 0.63, 0.78, 253.64, 251.25)">l</text><text class="cls-10" transform="translate(254.8 250.07) rotate(-33.03)">e</text><text class="cls-10" transform="translate(260.38 246.3) rotate(-24.22)">s</text><text class="cls-10" transform="matrix(0.95, -0.3, 0.3, 0.95, 267.21, 243.33)"> </text><text class="cls-10" transform="translate(269.63 242.37) rotate(-11.18)">c</text><text class="cls-10" transform="matrix(1, -0.05, 0.05, 1, 275.62, 241.01)">y</text><text class="cls-10" transform="translate(282.32 240.54) rotate(5.82)">c</text><text class="cls-10" transform="translate(289.5 241.36) rotate(11.83)">l</text><text class="cls-10" transform="translate(291.13 241.5) rotate(17.92)">e</text><text class="cls-10" transform="translate(297.52 243.43) rotate(27.15)">s</text><text class="cls-10" transform="matrix(0.83, 0.56, -0.56, 0.83, 304.07, 246.9)"> </text><text class="cls-10" transform="translate(306.28 248.16) rotate(40.69)">c</text><text class="cls-10" transform="matrix(0.65, 0.76, -0.76, 0.65, 311.04, 252.01)">y</text><text class="cls-10" transform="matrix(0.53, 0.85, -0.85, 0.53, 315.51, 257.03)">c</text><text class="cls-10" transform="matrix(0.43, 0.9, -0.9, 0.43, 319.23, 263.2)">l</text><text class="cls-10" transform="translate(320.11 264.56) rotate(70.33)">e</text><text class="cls-10" transform="translate(322.48 270.82) rotate(79.58)">s</text><text class="cls-10" transform="translate(323.73 278.09) rotate(86.44)"> </text><text class="cls-11" transform="matrix(-0.04, 1, -1, -0.04, 324.03, 280.76)">c</text><text class="cls-11" transform="matrix(-0.17, 0.99, -0.99, -0.17, 323.96, 285.68)">y</text><text class="cls-11" transform="matrix(-0.3, 0.96, -0.96, -0.3, 323.14, 291.04)">c</text><text class="cls-11" transform="translate(321.34 296.62) rotate(112.36)">l</text><text class="cls-11" transform="translate(320.98 297.85) rotate(117.56)">e</text><text class="cls-11" transform="matrix(-0.58, 0.82, -0.82, -0.58, 318.56, 302.68)">s</text><text class="cls-11" transform="translate(315.04 307.54) rotate(131.18)"> </text><text class="cls-11" transform="matrix(-0.73, 0.68, -0.68, -0.73, 313.79, 309.16)">c</text><text class="cls-11" transform="translate(310.27 312.63) rotate(144.33)">y</text><text class="cls-11" transform="matrix(-0.88, 0.47, -0.47, -0.88, 305.94, 315.86)">c</text><text class="cls-11" transform="translate(300.75 318.57) rotate(156.94)">l</text><text class="cls-11" transform="translate(299.63 319.2) rotate(162.14)">e</text><text class="cls-11" transform="matrix(-0.99, 0.17, -0.17, -0.99, 294.53, 320.95)">s</text><text class="cls-11" transform="translate(288.62 321.93) rotate(175.94)"> </text><text class="cls-11" transform="translate(286.62 322.22) rotate(-178.24)">c</text><text class="cls-11" transform="translate(281.7 322.23) rotate(-170.58)">y</text><text class="cls-11" transform="translate(276.35 321.45) rotate(-162.9)">c</text><text class="cls-11" transform="matrix(-0.92, -0.38, 0.38, -0.92, 270.84, 319.69)">l</text><text class="cls-11" transform="matrix(-0.88, -0.47, 0.47, -0.88, 269.6, 319.33)">e</text><text class="cls-11" transform="matrix(-0.81, -0.59, 0.59, -0.81, 264.83, 316.91)">s</text><text class="cls-11" transform="translate(260.04 313.35) rotate(-137.89)"> </text><text class="cls-11" transform="matrix(-0.67, -0.74, 0.74, -0.67, 258.45, 312.1)">c</text><text class="cls-11" transform="matrix(-0.56, -0.83, 0.83, -0.56, 255.08, 308.55)">y</text><text class="cls-11" transform="translate(251.98 304.16) rotate(-116.37)">c</text><text class="cls-11" transform="translate(249.46 298.93) rotate(-110.99)">l</text><text class="cls-11" transform="translate(248.87 297.81) rotate(-105.56)">e</text><text class="cls-11" transform="translate(247.34 292.68) rotate(-97.36)">s</text><text class="cls-11" transform="translate(246.64 286.78) rotate(-91.23)"> </text><text class="cls-11" transform="translate(246.44 284.77) rotate(-85.12)">c</text><text class="cls-11" transform="translate(246.71 279.92) rotate(-77.07)">y</text><text class="cls-11" transform="translate(247.79 274.7) rotate(-68.92)">c</text><text class="cls-11" transform="translate(249.93 269.35) rotate(-63.32)">l</text><text class="cls-11" transform="matrix(0.53, -0.84, 0.84, 0.53, 250.35, 268.18)">e</text><text class="cls-11" transform="matrix(0.65, -0.76, 0.76, 0.65, 253.1, 263.63)">s</text><text class="cls-11" transform="matrix(0.73, -0.68, 0.68, 0.73, 257.02, 259.19)"> </text><text class="cls-11" transform="matrix(0.8, -0.6, 0.6, 0.8, 258.37, 257.73)">c</text><text class="cls-11" transform="translate(262.17 254.72) rotate(-28.51)">y</text><text class="cls-11" transform="translate(266.81 252.08) rotate(-20.38)">c</text><text class="cls-11" transform="translate(272.25 250.13) rotate(-14.76)">l</text><text class="cls-11" transform="matrix(0.99, -0.16, 0.16, 0.99, 273.4, 249.67)">e</text><text class="cls-11" transform="matrix(1, -0.01, 0.01, 1, 278.6, 248.72)">s</text><text class="cls-11" transform="translate(284.52 248.74) rotate(6)"> </text><text class="cls-11" transform="matrix(0.98, 0.22, -0.22, 0.98, 286.48, 248.79)">c</text><text class="cls-11" transform="translate(291.19 249.67) rotate(20.92)">y</text><text class="cls-11" transform="translate(296.18 251.45) rotate(29.41)">c</text><text class="cls-11" transform="matrix(0.82, 0.58, -0.58, 0.82, 301.13, 254.33)">l</text><text class="cls-11" transform="translate(302.2 254.88) rotate(41.14)">e</text><text class="cls-11" transform="matrix(0.64, 0.77, -0.77, 0.64, 306.24, 258.26)">s</text><text class="cls-11" transform="translate(309.98 262.81) rotate(56.58)"> </text><text class="cls-11" transform="translate(311.18 264.34) rotate(63.09)">c</text><text class="cls-11" transform="translate(313.49 268.54) rotate(71.59)">y</text><text class="cls-11" transform="translate(315.27 273.52) rotate(80.09)">c</text><text class="cls-11" transform="translate(316.19 279.18) rotate(85.99)">l</text><text class="cls-11" transform="matrix(-0.03, 1, -1, -0.03, 316.44, 280.34)">e</text><text class="cls-11" transform="matrix(-0.19, 0.98, -0.98, -0.19, 316.39, 285.56)">s</text><text class="cls-11" transform="translate(315.19 291.31) rotate(107.98)"> </text><text class="cls-12" transform="translate(314.61 293.34) rotate(113.2)">c</text><text class="cls-12" transform="translate(313.43 296.28) rotate(119.14)">y</text><text class="cls-12" transform="translate(311.78 299.36) rotate(125.06)">c</text><text class="cls-12" transform="translate(309.55 302.48) rotate(129.14)">l</text><text class="cls-12" transform="matrix(-0.69, 0.73, -0.73, -0.69, 309.12, 303.13)">e</text><text class="cls-12" transform="matrix(-0.76, 0.65, -0.65, -0.76, 306.59, 305.49)">s</text><text class="cls-12" transform="matrix(-0.81, 0.59, -0.59, -0.81, 303.54, 307.88)"> </text><text class="cls-12" transform="translate(302.57 308.68) rotate(148.6)">c</text><text class="cls-12" transform="translate(299.93 310.38) rotate(154.52)">y</text><text class="cls-12" transform="translate(296.85 311.92) rotate(160.45)">c</text><text class="cls-12" transform="translate(293.26 313.16) rotate(164.55)">l</text><text class="cls-12" transform="translate(292.55 313.44) rotate(168.69)">e</text><text class="cls-12" transform="translate(289.22 314.17) rotate(174.99)">s</text><text class="cls-12" transform="matrix(-1, 0.01, -0.01, -1, 285.36, 314.48)"> </text><text class="cls-12" transform="translate(284.13 314.56) rotate(-175.66)">c</text><text class="cls-12" transform="translate(281.03 314.41) rotate(-169.57)">y</text><text class="cls-12" transform="translate(277.65 313.85) rotate(-163.46)">c</text><text class="cls-12" transform="matrix(-0.93, -0.35, 0.35, -0.93, 274.05, 312.75)">l</text><text class="cls-12" transform="matrix(-0.91, -0.42, 0.42, -0.91, 273.34, 312.57)">e</text><text class="cls-12" transform="translate(270.24 311.19) rotate(-148.48)">s</text><text class="cls-12" transform="translate(266.97 309.16) rotate(-143.67)"> </text><text class="cls-12" transform="matrix(-0.75, -0.66, 0.66, -0.75, 265.95, 308.51)">c</text><text class="cls-12" transform="translate(263.56 306.53) rotate(-132.77)">y</text><text class="cls-12" transform="translate(261.19 304.05) rotate(-126.6)">c</text><text class="cls-12" transform="matrix(-0.53, -0.84, 0.84, -0.53, 258.98, 301.03)">l</text><text class="cls-12" transform="matrix(-0.47, -0.88, 0.88, -0.47, 258.51, 300.45)">e</text><text class="cls-12" transform="matrix(-0.37, -0.93, 0.93, -0.37, 256.87, 297.51)">s</text><text class="cls-12" transform="matrix(-0.29, -0.96, 0.96, -0.29, 255.47, 293.89)"> </text><text class="cls-12" transform="matrix(-0.21, -0.98, 0.98, -0.21, 255.05, 292.78)">c</text><text class="cls-12" transform="translate(254.33 289.78) rotate(-95.71)">y</text><text class="cls-12" transform="translate(253.92 286.38) rotate(-89.43)">c</text><text class="cls-12" transform="translate(253.98 282.66) rotate(-85.07)">l</text><text class="cls-12" transform="translate(253.96 281.94) rotate(-80.66)">e</text><text class="cls-12" transform="matrix(0.28, -0.96, 0.96, 0.28, 254.44, 278.6)">s</text><text class="cls-12" transform="translate(255.52 274.93) rotate(-69.03)"> </text><text class="cls-12" transform="translate(255.86 273.81) rotate(-64.1)">c</text><text class="cls-12" transform="matrix(0.53, -0.85, 0.85, 0.53, 257.12, 271.02)">y</text><text class="cls-12" transform="matrix(0.63, -0.78, 0.78, 0.63, 258.85, 268.15)">c</text><text class="cls-12" transform="translate(261.23 265.23) rotate(-46.82)">l</text><text class="cls-12" transform="matrix(0.74, -0.67, 0.67, 0.74, 261.64, 264.67)">e</text><text class="cls-12" transform="matrix(0.81, -0.58, 0.58, 0.81, 264.06, 262.38)">s</text><text class="cls-12" transform="translate(267.18 260.17) rotate(-30.6)"> </text><text class="cls-12" transform="translate(268.15 259.5) rotate(-25.67)">c</text><text class="cls-12" transform="translate(270.87 258.09) rotate(-19.22)">y</text><text class="cls-12" transform="matrix(0.98, -0.22, 0.22, 0.98, 274.03, 256.91)">c</text><text class="cls-12" transform="matrix(0.99, -0.14, 0.14, 0.99, 277.68, 256.12)">l</text><text class="cls-12" transform="translate(278.33 255.93) rotate(-3.71)">e</text><text class="cls-12" transform="matrix(1, 0.06, -0.06, 1, 281.65, 255.64)">s</text><text class="cls-12" transform="translate(285.45 255.88) rotate(8.3)"> </text><text class="cls-12" transform="translate(286.6 255.96) rotate(13.38)">c</text><text class="cls-12" transform="translate(289.55 256.56) rotate(20.02)">y</text><text class="cls-12" transform="translate(292.72 257.64) rotate(26.68)">c</text><text class="cls-12" transform="translate(296.03 259.34) rotate(31.3)">l</text><text class="cls-12" transform="matrix(0.81, 0.59, -0.59, 0.81, 296.64, 259.6)">e</text><text class="cls-12" transform="translate(299.35 261.47) rotate(42.97)">s</text><text class="cls-12" transform="matrix(0.67, 0.75, -0.75, 0.67, 302.11, 264.08)"> </text><text class="cls-12" transform="translate(302.95 264.88) rotate(53.32)">c</text><text class="cls-12" transform="translate(304.81 267.23) rotate(60.01)">y</text><text class="cls-12" transform="translate(306.54 270.08) rotate(66.71)">c</text><text class="cls-12" transform="matrix(0.32, 0.95, -0.95, 0.32, 307.98, 273.49)">l</text><text class="cls-12" transform="matrix(0.24, 0.97, -0.97, 0.24, 308.28, 274.09)">e</text><text class="cls-12" transform="translate(309.15 277.26) rotate(83.14)">s</text><text class="cls-12" transform="matrix(0.03, 1, -1, 0.03, 309.57, 281.02)"> </text><text class="cls-13" transform="translate(309.67 282.24) rotate(93.01)">c</text><text class="cls-13" transform="translate(309.61 284.65) rotate(98.6)">y</text><text class="cls-13" transform="matrix(-0.25, 0.97, -0.97, -0.25, 309.25, 287.33)">c</text><text class="cls-13" transform="translate(308.5 290.22) rotate(108.08)">l</text><text class="cls-13" transform="matrix(-0.37, 0.93, -0.93, -0.37, 308.41, 290.72)">e</text><text class="cls-13" transform="translate(307.46 293.22) rotate(117.92)">s</text><text class="cls-13" transform="matrix(-0.53, 0.85, -0.85, -0.53, 306.01, 295.91)"> </text><text class="cls-13" transform="translate(305.6 296.69) rotate(126.68)">c</text><text class="cls-13" transform="matrix(-0.67, 0.74, -0.74, -0.67, 304.21, 298.67)">y</text><text class="cls-13" transform="translate(302.44 300.69) rotate(138.02)">c</text><text class="cls-13" transform="translate(300.2 302.68) rotate(141.93)">l</text><text class="cls-13" transform="translate(299.85 303.03) rotate(145.87)">e</text><text class="cls-13" transform="translate(297.68 304.57) rotate(151.82)">s</text><text class="cls-13" transform="translate(294.98 305.99) rotate(156.23)"> </text><text class="cls-13" transform="matrix(-0.94, 0.33, -0.33, -0.94, 294.13, 306.17)">c</text><text class="cls-13" transform="translate(291.8 306.66) rotate(166.37)">y</text><text class="cls-13" transform="translate(289.26 307.33) rotate(172.12)">c</text><text class="cls-13" transform="translate(286.37 307.71) rotate(176.1)">l</text><text class="cls-13" transform="matrix(-1, 0, 0, -1, 285.94, 307.81)">e</text><text class="cls-13" transform="translate(283.37 307.87) rotate(-173.8)">s</text><text class="cls-13" transform="translate(280.4 307.53) rotate(-169.28)"> </text><text class="cls-13" transform="translate(279.57 307.45) rotate(-164.81)">c</text><text class="cls-13" transform="matrix(-0.93, -0.36, 0.36, -0.93, 277.33, 306.92)">y</text><text class="cls-13" transform="translate(274.9 306.05) rotate(-153.13)">c</text><text class="cls-13" transform="translate(272.3 304.71) rotate(-149.08)">l</text><text class="cls-13" transform="matrix(-0.82, -0.57, 0.57, -0.82, 271.88, 304.54)">e</text><text class="cls-13" transform="translate(269.76 303.13) rotate(-138.81)">s</text><text class="cls-13" transform="matrix(-0.7, -0.72, 0.72, -0.7, 267.55, 301.17)"> </text><text class="cls-13" transform="translate(266.91 300.62) rotate(-129.7)">c</text><text class="cls-13" transform="translate(265.4 298.91) rotate(-123.81)">y</text><text class="cls-13" transform="translate(263.91 296.8) rotate(-117.9)">c</text><text class="cls-13" transform="translate(262.57 294.23) rotate(-113.81)">l</text><text class="cls-13" transform="matrix(-0.34, -0.94, 0.94, -0.34, 262.33, 293.86)">e</text><text class="cls-13" transform="translate(261.42 291.49) rotate(-103.42)">s</text><text class="cls-13" transform="translate(260.75 288.61) rotate(-98.78)"> </text><text class="cls-13" transform="matrix(-0.07, -1, 1, -0.07, 260.55, 287.82)">c</text><text class="cls-13" transform="translate(260.31 285.58) rotate(-88.16)">y</text><text class="cls-13" transform="matrix(0.14, -0.99, 0.99, 0.14, 260.33, 283.01)">c</text><text class="cls-13" transform="matrix(0.21, -0.98, 0.98, 0.21, 260.74, 280.16)">l</text><text class="cls-13" transform="translate(260.76 279.71) rotate(-73.74)">e</text><text class="cls-13" transform="translate(261.39 277.31) rotate(-67.37)">s</text><text class="cls-13" transform="translate(262.54 274.6) rotate(-62.64)"> </text><text class="cls-13" transform="matrix(0.53, -0.85, 0.85, 0.53, 262.85, 273.84)">c</text><text class="cls-13" transform="translate(263.98 271.89) rotate(-51.83)">y</text><text class="cls-13" transform="translate(265.48 269.88) rotate(-45.67)">c</text><text class="cls-13" transform="translate(267.5 267.83) rotate(-41.44)">l</text><text class="cls-13" transform="translate(267.77 267.5) rotate(-37.17)">e</text><text class="cls-13" transform="matrix(0.86, -0.51, 0.51, 0.86, 269.69, 265.96)">s</text><text class="cls-13" transform="translate(272.22 264.47) rotate(-25.93)"> </text><text class="cls-13" transform="translate(272.88 264.06) rotate(-21.18)">c</text><text class="cls-13" transform="matrix(0.97, -0.26, 0.26, 0.97, 274.97, 263.16)">y</text><text class="cls-13" transform="translate(277.35 262.45) rotate(-8.77)">c</text><text class="cls-13" transform="translate(280.21 262.02) rotate(-4.47)">l</text><text class="cls-13" transform="matrix(1, 0, 0, 1, 280.58, 261.92)">e</text><text class="cls-13" transform="translate(283.05 261.84) rotate(6.44)">s</text><text class="cls-13" transform="translate(285.94 262.18) rotate(11.32)"> </text><text class="cls-13" transform="matrix(0.96, 0.28, -0.28, 0.96, 286.73, 262.25)">c</text><text class="cls-13" transform="translate(288.89 262.8) rotate(22.46)">y</text><text class="cls-13" transform="translate(291.2 263.67) rotate(28.79)">c</text><text class="cls-13" transform="translate(293.69 265.07) rotate(33.16)">l</text><text class="cls-13" transform="translate(294.05 265.21) rotate(37.57)">e</text><text class="cls-13" transform="matrix(0.72, 0.7, -0.7, 0.72, 296.01, 266.62)">s</text><text class="cls-13" transform="translate(298.08 268.66) rotate(49.21)"> </text><text class="cls-13" transform="matrix(0.59, 0.81, -0.81, 0.59, 298.63, 269.18)">c</text><text class="cls-13" transform="translate(300 270.92) rotate(60.52)">y</text><text class="cls-13" transform="matrix(0.39, 0.92, -0.92, 0.39, 301.28, 273.03)">c</text><text class="cls-13" transform="translate(302.38 275.66) rotate(71.38)">l</text><text class="cls-13" transform="translate(302.57 275.98) rotate(75.86)">e</text><text class="cls-13" transform="translate(303.24 278.31) rotate(82.64)">s</text><text class="cls-13" transform="matrix(0.04, 1, -1, 0.04, 303.59, 281.18)"> </text><text class="cls-14" transform="translate(303.68 281.99) rotate(92.02)">c</text><text class="cls-14" transform="translate(303.67 283.78) rotate(97.3)">y</text><text class="cls-14" transform="translate(303.48 285.75) rotate(102.61)">c</text><text class="cls-14" transform="translate(302.96 287.99) rotate(106.27)">l</text><text class="cls-14" transform="translate(302.94 288.27) rotate(109.97)">e</text><text class="cls-14" transform="translate(302.33 290.1) rotate(115.56)">s</text><text class="cls-14" transform="translate(301.31 292.21) rotate(119.72)"> </text><text class="cls-14" transform="matrix(-0.56, 0.83, -0.83, -0.56, 301.07, 292.75)">c</text><text class="cls-14" transform="translate(300.12 294.18) rotate(129.19)">y</text><text class="cls-14" transform="translate(298.57 295.37) rotate(134.57)">c</text><text class="cls-14" transform="matrix(-0.75, 0.67, -0.67, -0.75, 296.73, 296.73)">l</text><text class="cls-14" transform="matrix(-0.79, 0.62, -0.62, -0.79, 296.59, 296.87)">e</text><text class="cls-14" transform="matrix(-0.85, 0.53, -0.53, -0.85, 295.15, 298.06)">s</text><text class="cls-14" transform="translate(293.26 299.25) rotate(151.93)"> </text><text class="cls-14" transform="translate(292.84 299.54) rotate(156.11)">c</text><text class="cls-14" transform="translate(291.36 300.27) rotate(161.55)">y</text><text class="cls-14" transform="translate(289.63 300.91) rotate(167)">c</text><text class="cls-14" transform="translate(287.44 301.4) rotate(170.76)">l</text><text class="cls-14" transform="translate(287.27 301.5) rotate(174.56)">e</text><text class="cls-14" transform="translate(285.47 301.72) rotate(-179.7)">s</text><text class="cls-14" transform="translate(283.22 301.72) rotate(-175.43)"> </text><text class="cls-14" transform="translate(282.74 301.73) rotate(-171.21)">c</text><text class="cls-14" transform="matrix(-0.97, -0.25, 0.25, -0.97, 281.12, 301.56)">y</text><text class="cls-14" transform="translate(279.3 301.15) rotate(-160.19)">c</text><text class="cls-14" transform="translate(277.24 300.4) rotate(-156.37)">l</text><text class="cls-14" transform="matrix(-0.89, -0.46, 0.46, -0.89, 277.04, 300.38)">e</text><text class="cls-14" transform="matrix(-0.84, -0.55, 0.55, -0.84, 275.42, 299.6)">s</text><text class="cls-14" transform="matrix(-0.79, -0.61, 0.61, -0.79, 273.57, 298.39)"> </text><text class="cls-14" transform="translate(273.16 298.14) rotate(-138.12)">c</text><text class="cls-14" transform="translate(271.91 297.13) rotate(-132.53)">y</text><text class="cls-14" transform="matrix(-0.6, -0.8, 0.8, -0.6, 270.65, 295.82)">c</text><text class="cls-14" transform="translate(269.32 294.06) rotate(-123.05)">l</text><text class="cls-14" transform="translate(269.19 293.97) rotate(-119.13)">e</text><text class="cls-14" transform="matrix(-0.39, -0.92, 0.92, -0.39, 268.26, 292.43)">s</text><text class="cls-14" transform="matrix(-0.32, -0.95, 0.95, -0.32, 267.4, 290.41)"> </text><text class="cls-14" transform="matrix(-0.25, -0.97, 0.97, -0.25, 267.19, 289.98)">c</text><text class="cls-14" transform="translate(266.71 288.46) rotate(-98.79)">y</text><text class="cls-14" transform="translate(266.38 286.68) rotate(-93.12)">c</text><text class="cls-14" transform="matrix(0.01, -1, 1, 0.01, 266.26, 284.5)">l</text><text class="cls-14" transform="matrix(0.08, -1, 1, 0.08, 266.21, 284.35)">e</text><text class="cls-14" transform="matrix(0.19, -0.98, 0.98, 0.19, 266.29, 282.58)">s</text><text class="cls-14" transform="matrix(0.26, -0.97, 0.97, 0.26, 266.7, 280.43)"> </text><text class="cls-14" transform="translate(266.75 280.01) rotate(-70.4)">c</text><text class="cls-14" transform="matrix(0.43, -0.9, 0.9, 0.43, 267.2, 278.5)">y</text><text class="cls-14" transform="matrix(0.52, -0.86, 0.86, 0.52, 267.91, 276.86)">c</text><text class="cls-14" transform="translate(269.04 275) rotate(-54.94)">l</text><text class="cls-14" transform="translate(269.08 274.84) rotate(-50.94)">e</text><text class="cls-14" transform="matrix(0.71, -0.71, 0.71, 0.71, 270.1, 273.46)">s</text><text class="cls-14" transform="matrix(0.76, -0.65, 0.65, 0.76, 271.66, 271.92)"> </text><text class="cls-14" transform="matrix(0.81, -0.59, 0.59, 0.81, 271.92, 271.61)">c</text><text class="cls-14" transform="translate(273.13 270.64) rotate(-30.04)">y</text><text class="cls-14" transform="matrix(0.91, -0.41, 0.41, 0.91, 274.63, 269.69)">c</text><text class="cls-14" transform="translate(276.6 268.81) rotate(-20.14)">l</text><text class="cls-14" transform="translate(276.68 268.72) rotate(-16.06)">e</text><text class="cls-14" transform="translate(278.3 268.16) rotate(-9.89)">s</text><text class="cls-14" transform="translate(280.43 267.79) rotate(-5.31)"> </text><text class="cls-14" transform="translate(280.83 267.68) rotate(-0.78)">c</text><text class="cls-14" transform="matrix(1, 0.09, -0.09, 1, 282.36, 267.58)">y</text><text class="cls-14" transform="translate(284.11 267.66) rotate(11.04)">c</text><text class="cls-14" transform="matrix(0.97, 0.26, -0.26, 0.97, 286.21, 268.07)">l</text><text class="cls-14" transform="translate(286.34 268.05) rotate(19.26)">e</text><text class="cls-14" transform="translate(287.96 268.52) rotate(25.49)">s</text><text class="cls-14" transform="translate(289.91 269.46) rotate(30.11)"> </text><text class="cls-14" transform="translate(289.99 269.88) rotate(34.75)">c</text><text class="cls-14" transform="translate(290.89 271.1) rotate(40.78)">y</text><text class="cls-14" transform="translate(292.1 272.21) rotate(46.81)">c</text><text class="cls-14" transform="matrix(0.63, 0.78, -0.78, 0.63, 293.49, 273.69)">l</text><text class="cls-14" transform="matrix(0.57, 0.82, -0.82, 0.57, 293.54, 273.66)">e</text><text class="cls-14" transform="translate(294.5 274.86) rotate(61.5)">s</text><text class="cls-14" transform="translate(295.46 276.65) rotate(66.21)"> </text><text class="cls-14" transform="translate(295.67 276.89) rotate(70.89)">c</text><text class="cls-14" transform="matrix(0.23, 0.97, -0.97, 0.23, 296.19, 278.17)">y</text><text class="cls-14" transform="matrix(0.12, 0.99, -0.99, 0.12, 296.64, 279.67)">c</text><text class="cls-14" transform="translate(296.88 281.69) rotate(87.29)">l</text><text class="cls-14" transform="translate(296.94 281.67) rotate(91.55)">e</text><text class="cls-14" transform="translate(297 283.18) rotate(97.98)">s</text><text class="cls-14" transform="translate(296.71 285.19) rotate(102.75)"> </text><text class="cls-15" transform="translate(296.7 285.57) rotate(106.89)">c</text><text class="cls-15" transform="matrix(-0.37, 0.93, -0.93, -0.37, 296.43, 286.65)">y</text><text class="cls-15" transform="matrix(-0.45, 0.89, -0.89, -0.45, 296.01, 287.83)">c</text><text class="cls-15" transform="translate(295.27 289.3) rotate(120.52)">l</text><text class="cls-15" transform="matrix(-0.56, 0.83, -0.83, -0.56, 295.33, 289.3)">e</text><text class="cls-15" transform="translate(294.68 290.36) rotate(129.4)">s</text><text class="cls-15" transform="matrix(-0.69, 0.73, -0.73, -0.69, 293.66, 291.63)"> </text><text class="cls-15" transform="matrix(-0.73, 0.68, -0.68, -0.73, 293.56, 291.8)">c</text><text class="cls-15" transform="translate(292.82 292.58) rotate(142.43)">y</text><text class="cls-15" transform="matrix(-0.84, 0.54, -0.54, -0.84, 291.84, 293.41)">c</text><text class="cls-15" transform="translate(290.47 294.27) rotate(151.11)">l</text><text class="cls-15" transform="translate(290.53 294.31) rotate(154.7)">e</text><text class="cls-15" transform="matrix(-0.94, 0.34, -0.34, -0.94, 289.48, 294.88)">s</text><text class="cls-15" transform="translate(287.93 295.43) rotate(164.14)"> </text><text class="cls-15" transform="translate(287.77 295.55) rotate(168.13)">c</text><text class="cls-15" transform="translate(286.77 295.83) rotate(173.33)">y</text><text class="cls-15" transform="matrix(-1, 0.03, -0.03, -1, 285.54, 296.02)">c</text><text class="cls-15" transform="translate(283.94 296.09) rotate(-177.87)">l</text><text class="cls-15" transform="translate(283.97 296.14) rotate(-174.25)">e</text><text class="cls-15" transform="translate(282.79 296.07) rotate(-168.78)">s</text><text class="cls-15" transform="translate(281.2 295.79) rotate(-164.71)"> </text><text class="cls-15" transform="matrix(-0.94, -0.33, 0.33, -0.94, 281.03, 295.8)">c</text><text class="cls-15" transform="translate(280.02 295.5) rotate(-155.44)">y</text><text class="cls-15" transform="translate(278.88 295.07) rotate(-150.18)">c</text><text class="cls-15" transform="matrix(-0.83, -0.55, 0.55, -0.83, 277.5, 294.27)">l</text><text class="cls-15" transform="translate(277.52 294.34) rotate(-142.88)">e</text><text class="cls-15" transform="matrix(-0.74, -0.68, 0.68, -0.74, 276.53, 293.7)">s</text><text class="cls-15" transform="matrix(-0.68, -0.73, 0.73, -0.68, 275.37, 292.63)"> </text><text class="cls-15" transform="translate(275.23 292.55) rotate(-129.13)">c</text><text class="cls-15" transform="matrix(-0.56, -0.83, 0.83, -0.56, 274.51, 291.82)">y</text><text class="cls-15" transform="translate(273.81 290.86) rotate(-118.48)">c</text><text class="cls-15" transform="translate(273.04 289.47) rotate(-114.8)">l</text><text class="cls-15" transform="translate(273.01 289.57) rotate(-111.08)">e</text><text class="cls-15" transform="matrix(-0.27, -0.96, 0.96, -0.27, 272.55, 288.52)">s</text><text class="cls-15" transform="translate(272.12 287.01) rotate(-101.29)"> </text><text class="cls-15" transform="matrix(-0.12, -0.99, 0.99, -0.12, 272.02, 286.89)">c</text><text class="cls-15" transform="translate(271.84 285.89) rotate(-91.78)">y</text><text class="cls-15" transform="translate(272.07 284.81) rotate(-86.34)">c</text><text class="cls-15" transform="translate(272.48 283.31) rotate(-82.58)">l</text><text class="cls-15" transform="matrix(0.19, -0.98, 0.98, 0.19, 272.75, 283.48)">e</text><text class="cls-15" transform="matrix(0.29, -0.96, 0.96, 0.29, 273.02, 282.46)">s</text><text class="cls-15" transform="translate(273.42 281.07) rotate(-68.85)"> </text><text class="cls-15" transform="translate(273.4 281.01) rotate(-64.67)">c</text><text class="cls-15" transform="matrix(0.51, -0.86, 0.86, 0.51, 273.67, 280.19)">y</text><text class="cls-15" transform="matrix(0.59, -0.81, 0.81, 0.59, 274.14, 279.25)">c</text><text class="cls-15" transform="translate(275.03 278.07) rotate(-49.98)">l</text><text class="cls-15" transform="matrix(0.69, -0.72, 0.72, 0.69, 274.84, 278.16)">e</text><text class="cls-15" transform="translate(275.45 277.39) rotate(-40.4)">s</text><text class="cls-15" transform="matrix(0.81, -0.59, 0.59, 0.81, 276.57, 276.46)"> </text><text class="cls-15" transform="matrix(0.85, -0.53, 0.53, 0.85, 276.53, 276.36)">c</text><text class="cls-15" transform="matrix(0.9, -0.44, 0.44, 0.9, 277.18, 275.84)">y</text><text class="cls-15" transform="translate(278.08 275.35) rotate(-20.85)">c</text><text class="cls-15" transform="translate(279.43 274.79) rotate(-17.03)">l</text><text class="cls-15" transform="translate(279.22 274.78) rotate(-13.17)">e</text><text class="cls-15" transform="translate(280.14 274.52) rotate(-7.35)">s</text><text class="cls-15" transform="matrix(1, -0.05, 0.05, 1, 281.53, 274.28)"> </text><text class="cls-15" transform="translate(281.54 274.21) rotate(1.28)">c</text><text class="cls-15" transform="matrix(0.99, 0.12, -0.12, 0.99, 282.36, 274.17)">y</text><text class="cls-15" transform="matrix(0.98, 0.22, -0.22, 0.98, 283.37, 274.17)">c</text><text class="cls-15" transform="translate(284.78 274.47) rotate(16.36)">l</text><text class="cls-15" transform="translate(284.58 274.38) rotate(20.27)">e</text><text class="cls-15" transform="translate(285.51 274.59) rotate(26.19)">s</text><text class="cls-15" transform="matrix(0.86, 0.51, -0.51, 0.86, 286.75, 275.18)"> </text><text class="cls-15" transform="translate(286.76 275.15) rotate(34.92)">c</text><text class="cls-15" transform="translate(287.48 275.49) rotate(40.59)">y</text><text class="cls-15" transform="matrix(0.69, 0.72, -0.72, 0.69, 288.28, 276.06)">c</text><text class="cls-15" transform="matrix(0.64, 0.77, -0.77, 0.64, 289.24, 277.1)">l</text><text class="cls-15" transform="matrix(0.59, 0.81, -0.81, 0.59, 289.18, 276.86)">e</text><text class="cls-15" transform="translate(289.78 277.54) rotate(60.12)">s</text><text class="cls-15" transform="matrix(0.43, 0.9, -0.9, 0.43, 290.45, 278.74)"> </text><text class="cls-15" transform="translate(290.54 278.65) rotate(68.96)">c</text><text class="cls-15" transform="translate(290.91 279.34) rotate(74.69)">y</text><text class="cls-15" transform="translate(291.22 280.22) rotate(80.43)">c</text><text class="cls-15" transform="matrix(0.1, 1, -1, 0.1, 291.5, 281.62)">l</text><text class="cls-15" transform="translate(291.55 281.33) rotate(88.42)">e</text><text class="cls-15" transform="translate(291.62 282.21) rotate(94.48)">s</text><text class="cls-15" transform="matrix(-0.16, 0.99, -0.99, -0.16, 291.58, 283.59)"> </text><text class="cls-15" transform="matrix(-0.23, 0.97, -0.97, -0.23, 291.67, 283.56)">c</text><text class="cls-15" transform="translate(291.55 284.28) rotate(109.26)">y</text><text class="cls-15" transform="translate(291.03 284.95) rotate(115.15)">c</text><text class="cls-15" transform="translate(290.22 286.03) rotate(119.22)">l</text><text class="cls-15" transform="matrix(-0.55, 0.84, -0.84, -0.55, 290.15, 285.63)">e</text><text class="cls-15" transform="translate(289.79 286.28) rotate(129.48)">s</text><text class="cls-15" transform="matrix(-0.7, 0.72, -0.72, -0.7, 289, 287.29)"> </text><text class="cls-15" transform="matrix(-0.75, 0.66, -0.66, -0.75, 289.16, 287.19)">c</text><text class="cls-15" transform="matrix(-0.81, 0.58, -0.58, -0.81, 288.81, 287.7)">y</text><text class="cls-15" transform="translate(288.24 288.25) rotate(150.35)">c</text><text class="cls-15" transform="translate(287.1 288.87) rotate(154.42)">l</text><text class="cls-15" transform="translate(287.47 288.82) rotate(158.54)">e</text><text class="cls-15" transform="translate(286.87 289.2) rotate(164.77)">s</text><text class="cls-15" transform="translate(285.68 289.51) rotate(169.39)"> </text><text class="cls-15" transform="matrix(-0.99, 0.11, -0.11, -0.99, 285.88, 289.58)">c</text><text class="cls-15" transform="translate(285.35 289.78) rotate(179.93)">y</text><text class="cls-15" transform="translate(284.6 289.84) rotate(-174.1)">c</text><text class="cls-15" transform="translate(283.34 289.77) rotate(-169.95)">l</text><text class="cls-15" transform="matrix(-0.97, -0.25, 0.25, -0.97, 283.69, 289.95)">e</text><text class="cls-15" transform="translate(283.04 289.86) rotate(-159.48)">s</text><text class="cls-15" transform="matrix(-0.9, -0.43, 0.43, -0.9, 281.87, 289.47)"> </text><text class="cls-15" transform="translate(282.02 289.68) rotate(-150.15)">c</text><text class="cls-15" transform="translate(281.5 289.48) rotate(-144.1)">y</text><text class="cls-15" transform="translate(280.84 289.16) rotate(-138.04)">c</text><text class="cls-15" transform="translate(279.88 288.37) rotate(-133.85)">l</text><text class="cls-15" transform="translate(280.11 288.7) rotate(-129.63)">e</text><text class="cls-15" transform="translate(279.63 288.27) rotate(-123.24)">s</text><text class="cls-15" transform="translate(278.91 287.32) rotate(-118.49)"> </text><text class="cls-15" transform="translate(278.95 287.56) rotate(-113.79)">c</text><text class="cls-15" transform="translate(278.43 286.82) rotate(-104.03)">y</text><text class="cls-15" transform="translate(277.75 284.55) rotate(-80.05)">c</text><text class="cls-15" transform="matrix(0.46, -0.89, 0.89, 0.46, 278.23, 282.21)">l</text><text class="cls-15" transform="translate(278.44 281.41) rotate(-44.63)">e</text><text class="cls-15" transform="matrix(0.96, -0.27, 0.27, 0.96, 280.1, 279.55)">s</text><text class="cls-15" transform="matrix(0.99, 0.12, -0.12, 0.99, 282.58, 278.96)"> </text><text class="cls-15" transform="matrix(0.86, 0.51, -0.51, 0.86, 283.78, 278.88)">c</text><text class="cls-15" transform="translate(285.89 279.97) rotate(63.81)">y</text><text class="cls-15" transform="matrix(-0.17, 0.98, -0.98, -0.17, 287.16, 282.25)">c</text><text class="cls-15" transform="matrix(-0.61, 0.8, -0.8, -0.61, 286.7, 284.77)">l</text><text class="cls-15" transform="translate(286.29 285.67) rotate(156.84)">e</text><text class="cls-15" transform="translate(283.7 286.96) rotate(-152.92)">s</text><text class="cls-15" transform="translate(281.34 285.53) rotate(-110.16)"> </text><text class="cls-15" transform="matrix(0.48, -0.88, 0.88, 0.48, 280.46, 284.12)">c</text><text class="cls-15" transform="translate(282.05 281.53) rotate(9.96)">y</text><text class="cls-15" transform="matrix(-0.55, 0.84, -0.84, -0.55, 285.11, 282.85)">c</text><text class="cls-15" transform="translate(282.99 284.54) rotate(-114.54)">l</text><text class="cls-15" transform="translate(283.29 281.79) rotate(92.21)">e</text><text class="cls-15" transform="matrix(-0.07, 1, -1, -0.07, 283.23, 282.03)">s</text><text class="cls-15" transform="translate(283.52 282.81) rotate(115.97)"> </text><text class="cls-15" transform="matrix(-0.7, 0.72, -0.72, -0.7, 284.25, 282.45)">c</text><text class="cls-15" transform="matrix(-1, 0.09, -0.09, -1, 284.77, 283.45)">y</text><text class="cls-15" transform="translate(284.41 284.24) rotate(-150.76)">c</text><text class="cls-15" transform="translate(283.72 283.89) rotate(-128.89)">l</text><text class="cls-15" transform="matrix(-0.15, -0.99, 0.99, -0.15, 283.34, 284.85)">e</text><text class="cls-15" transform="matrix(0.64, -0.76, 0.76, 0.64, 282.29, 284.41)">s</text><text class="cls-15" transform="translate(282.7 283.55) rotate(-18.97)"> </text><text class="cls-15" transform="translate(282.02 283.3) rotate(3.29)">c</text><text class="cls-15" transform="translate(282.17 282.74) rotate(23.16)">y</text><text class="cls-15" transform="translate(282.5 282.49) rotate(40.03)">c</text><text class="cls-15" transform="matrix(0.62, 0.78, -0.78, 0.62, 283.11, 283.19)">l</text><text class="cls-15" transform="translate(283 282.29) rotate(61.98)">e</text><text class="cls-15" transform="translate(283.39 282.23) rotate(77.66)">s</text><text class="cls-15" transform="translate(283.45 283.05) rotate(89.28)"> </text></svg>