<svg xmlns="http://www.w3.org/2000/svg" width="1143.186" height="391.7139" viewBox="0 0 1143.186 391.7139"><defs><style>.a,.b,.c,.d,.e,.f,.g{fill:none;stroke:#0017a0;stroke-miterlimit:10;}.a{stroke-width:1.7691px;}.b{stroke-width:2.1497px;}.c{stroke-width:0.7139px;}.d{stroke-width:2px;}.e{stroke-width:1.2954px;}.f{stroke-width:0.3238px;}.g{stroke-width:0.6477px;}</style></defs><path class="a" d="M635.0046,299.3435c.2119-3.9453.3281-47.2544-.8047-50.5659-4.9121.4692-5.2246-14.6533-4.8974-18.6553,3.4589-.4346,7.0341-.7588,9.3545,1.65,3.17,3.2871,1.789,7.5142,3.8388,11.3272-1.2451.0747-5.1836,1.2163-5.8779,2.018-2.24,2.6084,1.375,7.0864,3.4219,7.6729,7.7382,2.2,6.0156-13.83,2.9287-13.6289,2.9082,4.5947,3.98,2.2856,8.5771,1.7358,4.2-.5,3.6524.75,2.0938-5.0962-2.4209-9.0737-9.4033-4.13-14.4922-1.8691,2.3008-2.4756,13.1777-11.8907,6.9414-16.5274-5.6943-4.2383-10.1816,12.1573-11.8516,16.0952.2461-2.9106-.9121-14.2876-2.7031-16.1884-3.99-4.2461-4.78,9.3081-9.0107,9.042,1.9023,2.1079,5.07,3.7172,7.2548,5.4448a72.9793,72.9793,0,0,0-8.3349,2.8838c-1.0713.459-3.0068.459-3.9268,1.0356-1.4062.8687-.2646,2.5181-2.2509,2.8687a4.0133,4.0133,0,0,0,.1582,1.91c2.9169.15,10.2158,1.5674,12.4335-.7431.2715,1.86-3.6162,7.6987-4.6923,8.7656.6367.3,3.6894,6.6728,4.2832,6.5146.4424-2.477.6142-10.5083,3.6523-9.2578"/><path class="a" d="M662.8757,304.5315c0-7.0073-.5332-19.708-.8252-26.6812-7.9355,9.6094-8.2139-13.7348-6.208-21.2661,1.94,3.7525,1.9072,10.7178,6.2432,5.7144a48.0929,48.0929,0,0,0,.0214-5.7144c1.5909,6.1455,4.7168,9.0332,6.3008,0,.0576,6.105,2.7364,10.2422,1.6719,16.105-1.2217,6.7378-3.4893,5.4722-8.0293,5.1611"/><path class="b" d="M695.7771,307.5662c0-9.272-1.2256-44.2891-.99-53.542a7.3789,7.3789,0,0,1,4.3907.1787c1.5214,7.14-8.5811,4.83-11.9991,4.7261-1.1582-10.7134.27-19.8521,10.7666-16.566,8.0088,2.5108,6.5811,7.0371,7.8623,15.6758-7.333,1.8086-16.6767,12.8159-21.4,2.5679-6.1885-13.4317-1.7793-25.4053,9.2724-26.8828,10.5576-1.4024,18.0225,4.3955,19.7988,18.4126,2.0518,16.187-9.5644,18.7182-19.5615,19.38-12.9814.8535-19.2539-7.0943-19.18-22.542"/><path class="c" d="M601.779,303.781c-1.2676-6.5317-2.8252-35.0093-6.6689-40.1152,2.0615-.61,2.2178-4.2456,1.9687-7.6856-.3994,4.4268-3.6972,7.4077-6.2265,10.8877,3.2588-2.7051,13.0908-20.6523,13.7509-24.39-6.0781-.6426-20.1562,15.8027-25.5634,17.5415,1.6328,1.4316,14.4414,6.9741,17.0781,6.689,7.4228-.7994,5.0205-8.73,4.5605-13.9458a1.5674,1.5674,0,0,0-1.4726-.1509c-1.2207,5.1313-10.3877,17.0757-17.7149,17.0073,5.3565.5522,19.1875-8.6733,22.1182-12.2246-5.6836-.7031-12.4961-.4658-18.4033-.1885-.8945,4.5064-.5576,9.8423-.21,14.5313,7.58.23,9.6582.5927,14.0215-4.396,2.6807-3.0835,5.3008-9.7491,4.499-13.18-8.5156-1.3125-23.3945,3.5889-15.1338,12.207,4.5616,4.7671,13.7139,3.2114,20.5508,2.7442-5.3242-11.7178,2.3057-14.1289-10.459-15.1255-10.7382-.8365-16.1386,3.812-22.5615,9.7558,5.13-.0468,10.2666,0,15.3848-.0468,3.1328-7.0259,3.4394-15.7886,2.792-23.2681-2.0772,7.7637-12.5694,10.66-17.4717,16.5332a82.3691,82.3691,0,0,0,10.7266-.12,23.0435,23.0435,0,0,0,.205-7.77,39.9482,39.9482,0,0,0-9.165-.0078,22.2194,22.2194,0,0,0-.0225,7.03c7.7627.773,16.3379.3619,24.2686.229,3.2041-7.7426-6.8-5.82-13.0723-5.8593"/><path class="d" d="M.5847,280.9172S165.0779,399.4607,280.114,390.198c115.0381-9.2647,131.3848-54.0479,253.5752-75.0361,299.3252-51.4053,286.5947,102.9116,427.375,59.9892,123.3428-37.6079,181.2207-157.9082,181.2207-157.9082"/><path class="e" d="M617.6628,13.1506S628.4812-1.3376,637.4958.8782c5.459,1.3442,11.5957,7.0566,11.5957,7.0566s12.3916-3.4057,18.999-.9365c7.31,2.2212,14.8,16.9663,13.0557,26.2744C679.29,45.5183,660.8,45.4363,660.8,45.4363s-10.1406,9.9243-16.8613,10.39c-6.9189-.4306-20.0332-13.0859-20.0332-13.0859S609.94,52.8269,603.6423,48.3176c-6.498-5.4052-16.6475-11.4985-15.8418-19.8574C590.2976,2.6282,617.6628,13.1506,617.6628,13.1506Z"/><path class="f" d="M612.6013,113.5774c-.2695,2.33.61,4.6865,1.1494,6.8945,5.4248-2.1982.6729-13.417-1.7129-7.6406"/><path class="f" d="M665.863,122.8494c-.2685,2.3305.61,4.687,1.1494,6.894,5.4258-2.1977.6748-13.416-1.7129-7.64"/><path class="f" d="M665.863,122.8494c-.2685,2.3305.61,4.687,1.1494,6.894,5.4258-2.1977.6748-13.416-1.7129-7.64"/><path class="f" d="M649.19,97.37c-.2666,2.33.61,4.687,1.1484,6.8945,5.4258-2.1982.6748-13.416-1.7119-7.6406"/><path class="g" d="M644.1208,149.428c-.2685,2.33.61,4.6875,1.1485,6.8935,5.4267-2.1982.6767-13.4155-1.711-7.6391"/><path class="g" d="M630.7878,95.051c-.2676,2.33.6113,4.6861,1.1485,6.8936,5.4257-2.1983.6757-13.4165-1.711-7.6406"/><path class="g" d="M684.05,104.3235c-.2675,2.3291.6114,4.6855,1.1494,6.8931,5.4249-2.1983.6739-13.4156-1.7119-7.6392"/><path class="g" d="M684.05,104.3235c-.2675,2.3291.6114,4.6855,1.1494,6.8931,5.4249-2.1983.6739-13.4156-1.7119-7.6392"/><path class="g" d="M659.6335,78.845c-.2685,2.33.6113,4.6855,1.1494,6.8925,5.4258-2.1982.6748-13.416-1.7109-7.64"/><path class="g" d="M671.59,152.092c-.2686,2.33.6113,4.6866,1.1484,6.8936,5.4258-2.1982.6748-13.415-1.7129-7.64"/><path class="f" d="M626.0554,133.5471c-.2686,2.33.61,4.6865,1.1484,6.8936,5.4258-2.1973.6748-13.416-1.7138-7.64"/><path class="g" d="M595.778,90.4153c-.2675,2.3291.6124,4.6855,1.15,6.8926,5.4258-2.1983.6739-13.4161-1.7129-7.64"/><path class="f" d="M659.6335,182.2087c-.2685,2.3287.6113,4.6846,1.1494,6.8921,5.4258-2.1982.6748-13.4155-1.7109-7.6391"/><path class="g" d="M611.8152,154.0642c-.2686,2.33.61,4.686,1.1484,6.8941,5.4268-2.1983.6768-13.4161-1.7119-7.64"/><path class="f" d="M634.9988,170.3845c-.2686,2.3247.6113,4.6861,1.15,6.8882,5.4258-2.1934.6729-13.415-1.7119-7.6352"/></svg>