<svg id="Layer_1" data-name="Layer 1" xmlns="http://www.w3.org/2000/svg" viewBox="0 0 14.3 19.01"><defs><style>.cls-1{fill:#1d42cc;}</style></defs><title>sym2</title><polygon class="cls-1" points="0.05 15.58 0.05 19.01 14.3 19.01 14.27 15.53 0.05 15.58"/><path class="cls-1" d="M6.71,3.45A4,4,0,0,1,9.64,4.67,4,4,0,0,1,10.85,7.6a3.91,3.91,0,0,1-1.21,2.86A3.67,3.67,0,0,1,6.9,11.69L0,11.67l0,3.43H7.11A6.88,6.88,0,0,0,12,13,7.32,7.32,0,0,0,14.29,7.6a7.24,7.24,0,0,0-2.14-5.32A7.17,7.17,0,0,0,6.93,0L0,.06,0,3.45Z"/></svg>