<svg id="Layer_1" data-name="Layer 1" xmlns="http://www.w3.org/2000/svg" viewBox="0 0 14.3 19.01"><defs><style>.cls-1{fill:#1d42cc;}</style></defs><title>sym6</title><polygon class="cls-1" points="0 19.01 14.25 19.01 14.25 15.58 0.03 15.53 0 19.01"/><path class="cls-1" d="M7.59,3.45h6.67l0-3.39L7.35,0a7.16,7.16,0,0,0-5.2,2.28A7.24,7.24,0,0,0,0,7.6,7.31,7.31,0,0,0,2.26,13,6.87,6.87,0,0,0,7.19,15.1h7.06l0-3.43-6.89,0a3.69,3.69,0,0,1-2.74-1.23A4,4,0,0,1,3.44,7.6,4,4,0,0,1,4.66,4.67,3.93,3.93,0,0,1,7.59,3.45Z"/></svg>