<svg id="Layer_1" data-name="Layer 1" xmlns="http://www.w3.org/2000/svg" viewBox="0 0 16.19 16.2"><defs><style>.cls-1{fill:#fff;}</style></defs><title>Artboard 8</title><path class="cls-1" d="M16,1.26,14.29,3a9.56,9.56,0,0,1,1.48,2.54,8.09,8.09,0,0,1,.42,2.74,7.72,7.72,0,0,1-2.12,5.33,7.74,7.74,0,0,1-6,2.64,7.59,7.59,0,0,1-2.58-.41,11,11,0,0,1-2.6-1.49L1.23,16l-1-1L1.9,13.3A10.77,10.77,0,0,1,.42,10.67,7.68,7.68,0,0,1,0,8,7.68,7.68,0,0,1,2.39,2.39,7.72,7.72,0,0,1,8,0,7.86,7.86,0,0,1,10.7.42a10.62,10.62,0,0,1,2.59,1.49L14.94.25ZM12.29,2.91A11.68,11.68,0,0,0,10,1.74a5.87,5.87,0,0,0-2-.33,6.4,6.4,0,0,0-4.69,2,6.46,6.46,0,0,0-2,4.71,6.17,6.17,0,0,0,.33,2.1,9.51,9.51,0,0,0,1.17,2.14Zm1,1L3.88,13.33a7.22,7.22,0,0,0,4.23,1.46,6.44,6.44,0,0,0,4.7-1.95,6.35,6.35,0,0,0,2-4.66,6.62,6.62,0,0,0-.32-2.13A9.85,9.85,0,0,0,13.32,3.91Z"/></svg>